<svg width="425" height="271" viewBox="0 0 425 271" fill="none" xmlns="http://www.w3.org/2000/svg">
<path d="M406.135 149.824L404.804 163.049L401.5 195.896H335.121C335.64 188.534 336.348 177.937 337.105 166.498C337.18 165.355 337.258 164.205 337.333 163.049C339.231 134.293 341.308 101.752 341.308 101.752L350.035 103.78L366.966 107.707L373.865 109.307L392.341 113.598C401.552 115.734 407.888 132.372 406.135 149.824V149.824Z" fill="#F2F2F2"/>
<path d="M355.926 48.5387L364.089 66.3583L348.4 80.2286L341.707 58.325L355.926 48.5387Z" fill="#FFB6B6"/>
<path d="M345.534 65.3968C356.703 65.3968 365.756 54.1024 365.756 40.1701C365.756 26.2377 356.703 14.9433 345.534 14.9433C334.366 14.9433 325.312 26.2377 325.312 40.1701C325.312 54.1024 334.366 65.3968 345.534 65.3968Z" fill="#FFB6B6"/>
<path d="M344.082 45.8097C342.476 42.7611 343.107 41.1666 341.762 40.0463C341.762 40.0462 341.221 39.5954 337.35 39.3384C336.483 31.5559 335.401 30.6121 335.401 30.6121C334.154 29.5244 332.303 29.8778 331.152 30.5431C328.717 31.9501 328.999 34.9894 327.36 35.571C325.095 36.3744 320.974 31.8451 320.568 26.66C320.237 22.4304 322.421 18.3224 323.288 18.5397C324.147 18.7552 326.203 15.4796 327.314 15.5302C328.072 15.5647 331.171 13.8845 332.005 14.0159C332.915 14.1594 335.916 16.1134 336.041 15.6669C336.911 12.5647 336.655 11.7039 337.393 10.8164C338.7 9.24379 340.837 10.3389 344.191 10.9269C351.092 12.1365 352.296 9.29808 355.833 11.222C357.619 12.1939 359.114 14.8149 362.031 20.0173C366.11 27.2928 368.149 30.9306 368.162 35.1735C368.176 39.5005 366.496 39.2259 365.758 45.6317C364.937 52.7624 366.682 56.0229 364.776 58.3396C363.302 60.13 360.308 60.555 358.734 58.9837C356.04 56.2933 359.566 49.8015 356.585 45.0585C354.755 42.1471 351.075 40.8517 349.389 42.2908C347.483 43.918 348.533 48.6943 347.192 49.1472C346.044 49.5351 344.362 46.3409 344.082 45.8097L344.082 45.8097Z" fill="#2F2E41"/>
<path d="M391.189 145.166C390.625 157.197 388.384 160.996 387.599 175.204C387.428 178.324 387.325 181.944 387.325 186.263C387.325 187.364 387.33 188.428 387.33 189.468C387.33 191.682 387.296 193.774 387.09 195.896C386.933 197.59 386.663 199.297 386.217 201.095H342.663C342.659 201.083 342.659 201.071 342.653 201.058C342.399 199.676 342.237 198.355 342.114 197.089C342.075 196.685 342.041 196.288 342.011 195.896C341.972 195.437 341.938 194.985 341.904 194.538C341.771 192.758 341.639 191.076 341.325 189.468C340.903 187.247 340.138 185.156 338.569 183.137C337.927 182.312 337.285 181.669 336.657 181.107C336.535 181.003 336.417 180.899 336.294 180.795C334.559 179.308 332.916 178.238 331.494 175.204C331.47 175.161 331.45 175.112 331.431 175.07C331.185 174.538 330.548 173.143 330.087 171.284C329.601 169.351 329.307 166.922 329.837 164.439C331.097 158.555 335.765 157.968 339.579 152.023C339.991 151.381 340.398 150.671 340.786 149.882C342.511 146.383 342.977 143.301 343.526 139.637C343.614 139.044 343.693 138.456 343.757 137.888C343.806 137.46 343.85 137.038 343.884 136.622C344.188 133.129 344.041 130.12 343.683 127.429C342.516 118.615 339.074 113.159 341.506 105.25C342.271 102.767 343.355 100.902 344.448 99.3052C346.762 95.9226 349.14 93.7269 348.729 89.36C348.312 84.956 345.634 84.3504 345.336 80.5031C345.183 78.5583 345.693 76.5092 346.65 74.4969V74.4909C349.709 68.0134 357.348 62.0498 362.202 62.2395C363.099 62.2702 363.894 62.5208 364.555 63.004C366.953 64.7655 365.953 68.6128 369.625 74.0077C372.356 78.0138 375.445 79.6164 376.617 80.3747C381.26 83.3965 385.035 92.308 387.599 103.703C387.619 103.789 387.639 103.874 387.658 103.966C389.242 111.104 390.36 119.208 390.914 127.429C391.149 130.909 391.287 134.408 391.316 137.869C391.341 140.634 391.292 143.032 391.189 145.166Z" fill="#6C63FF"/>
<path d="M358.574 186.385L357.686 189.468L357.127 191.4L355.833 195.896L354.333 201.095H344.688L346.306 195.896L347.057 193.474L348.302 189.468L350.391 182.74L358.574 186.385Z" fill="#FFB6B6"/>
<path d="M387.752 102.651C387.727 103.049 387.693 103.489 387.658 103.966C387.276 108.822 386.374 117.514 385.055 127.429C384.359 132.658 383.545 138.23 382.628 143.766C380.657 155.711 378.206 167.473 375.435 175.204C374.94 176.599 374.43 177.859 373.91 178.972C373.513 179.822 373.096 180.66 372.66 181.486C371.248 184.195 369.664 186.764 368.022 189.162C367.958 189.266 367.884 189.364 367.811 189.468C367.546 189.859 367.272 190.245 366.997 190.63C365.654 192.52 364.281 194.281 362.952 195.896C361.334 197.866 359.775 199.609 358.378 201.095H342.717L342.653 201.058L340.398 199.811C340.398 199.811 341.04 198.869 342.114 197.089C342.335 196.728 342.57 196.33 342.825 195.896C343.139 195.364 343.477 194.777 343.84 194.141C344.595 192.807 345.453 191.242 346.375 189.468C348.16 186.036 350.194 181.816 352.249 176.929C352.484 176.36 352.724 175.785 352.965 175.204C352.969 175.186 352.979 175.167 352.984 175.149C353.391 174.158 353.793 173.137 354.195 172.097C357.603 163.253 358.579 155.913 358.858 153.534C359.25 150.17 359.794 145.466 359.647 140.291C359.549 136.879 359.152 133.27 358.206 129.686V129.68C358.01 128.927 357.789 128.175 357.539 127.429C357.093 126.089 356.563 124.768 355.936 123.465C353.166 117.728 350.915 117.489 349.126 111.238C348.596 109.385 347.395 105.202 347.762 100.785V100.779C347.807 100.235 347.88 99.6845 347.978 99.1338V99.1278C348.003 98.9749 348.037 98.816 348.072 98.6631C348.351 97.3114 348.812 95.9716 349.513 94.6993C350.881 92.2286 352.749 90.7604 354.421 89.8859L354.426 89.8797C356.358 88.8768 358.025 88.6626 358.348 88.6259C365.511 87.8309 371.067 95.3418 374.102 99.4459C375.273 101.03 376.347 102.357 377.328 103.44C384.962 111.942 387.056 106.51 387.6 103.703C387.683 103.269 387.727 102.896 387.752 102.651V102.651Z" fill="#6C63FF"/>
<path d="M387.776 102.333C387.776 102.363 387.771 102.467 387.752 102.639C387.761 102.547 387.767 102.455 387.771 102.369C387.771 102.351 387.771 102.339 387.776 102.333Z" fill="#6C63FF"/>
<path d="M115.255 49.7113L131.82 41.0151L138.924 59.1843L121.518 68.0473L115.255 49.7113Z" fill="#FFB6B6"/>
<path opacity="0.1" d="M115.255 49.7113L131.82 41.0151L138.924 59.1843L121.518 68.0473L115.255 49.7113Z" fill="black"/>
<path d="M117.61 42.7877L133.951 66.2747C133.951 66.2747 122.583 111.033 111.216 115.021C99.8483 119.01 78.8894 138.508 78.8894 138.508L52.6019 117.237L65.3904 93.75C65.3904 93.75 96.296 41.0151 104.466 41.0151C112.637 41.0151 117.61 42.7877 117.61 42.7877V42.7877Z" fill="#6C63FF"/>
<path d="M95.5322 195.896H57.4935L55.0886 191.886L45.2698 175.511L43.0105 171.745C43.0105 171.745 34.4848 152.246 36.261 134.52C38.0372 116.794 56.5095 112.806 56.5095 112.806H57.2697L79.884 137.595L78.5342 160.666L85.6957 175.511L95.5322 195.896Z" fill="#2F2E41"/>
<path d="M65.2838 195.896H55.0886V177.062L65.2838 195.896Z" fill="#2F2E41"/>
<path d="M285.182 167.304L283.914 175.511L280.767 195.896H217.538C218.032 191.327 218.707 184.751 219.428 177.652C219.499 176.943 219.574 176.229 219.645 175.511C221.453 157.666 223.431 137.471 223.431 137.471L231.744 138.73L247.872 141.167L254.444 142.16L272.042 144.823C280.816 146.148 286.852 156.474 285.182 167.304H285.182Z" fill="#F2F2F2"/>
<path d="M374.663 195.896H340.368C340.89 195.13 341.185 194.687 341.185 194.687L351.466 192.568L372.648 188.208C372.648 188.208 373.615 191.323 374.663 195.896V195.896Z" fill="#2F2E41"/>
<path d="M229.195 58.5749L244.109 84.8866L218.094 85.8558L215.301 61.129L229.195 58.5749Z" fill="#A0616A"/>
<path opacity="0.1" d="M229.195 58.5749L244.109 84.8866L218.094 85.8558L215.301 61.129L229.195 58.5749Z" fill="black"/>
<path d="M155.645 113.091C153.731 106.204 149.332 101.854 145.819 103.374C142.306 104.894 141.01 111.708 142.925 118.597C143.66 121.361 144.915 123.867 146.585 125.902L154.988 154.953L165.832 149.743L156.397 121.657C156.698 118.768 156.44 115.83 155.645 113.091Z" fill="#A0616A"/>
<path d="M256.599 99.6838L256.579 126.499L254.579 136.403L250.465 156.775L247.47 175.511L245.239 189.471L244.444 194.456C243.843 194.957 243.247 195.435 242.65 195.896H190.689C187.737 193.685 186.085 191.966 186.085 191.966C186.085 191.966 186.903 191.008 187.837 189.471C189.414 186.874 191.322 182.62 190.153 178.556C189.908 177.705 189.844 176.668 189.918 175.511C190.395 167.88 196.81 154.976 196.81 154.976L195.482 135.823L194.899 127.43L199.007 86.5043L212.395 76.7949L214.707 76.5159L237.524 74.9782L246.954 75.6562L247.384 75.8024L256.599 99.6838V99.6838Z" fill="#CCCCCC"/>
<path d="M257.612 195.896H246.245L245.744 189.471L245.733 189.342L248.952 189.067L257.325 188.354L257.47 192.2L257.584 195.152L257.612 195.896Z" fill="#FFB6B6"/>
<path d="M260.411 106.167L265.186 141.118L261.289 175.511L260.682 180.865L259.609 190.317L259.278 193.224L259.289 193.539L259.371 195.896H245.872L245.374 189.471L245.332 188.895L244.316 175.733L244.298 175.511L242.142 147.602L246.369 127.43L246.682 125.945V125.941L248.521 91.4013L247.096 75.7049L247.082 75.5587C247.111 75.5808 247.136 75.603 247.164 75.6252C247.239 75.6828 247.313 75.7404 247.384 75.8024C255.683 82.37 260.627 93.8919 260.411 106.167Z" fill="#CCCCCC"/>
<path d="M203.843 93.2017L198.652 86.5038C198.652 86.5038 187.539 92.7533 186.985 96.2205C186.431 99.6877 166.811 150.611 166.811 150.611L158.275 122.171L147.164 131.425C147.164 131.425 156.079 175.581 164.417 177.654C172.755 179.727 200.701 125.391 200.701 125.391L203.843 93.2017H203.843Z" fill="#CCCCCC"/>
<path d="M414.62 175.204H10.3749C4.6531 175.204 0 181.015 0 188.153C0 195.29 4.65309 201.095 10.3749 201.095H414.62C420.342 201.095 425 195.291 425 188.153C425 181.014 420.342 175.204 414.62 175.204Z" fill="#E6E6E6"/>
<path d="M254.233 135.748L253.447 181.501C253.371 185.93 250.471 189.471 246.92 189.471H179.453C175.986 189.471 173.124 186.09 172.934 181.771L170.929 136.018C170.725 131.353 173.702 127.43 177.448 127.43H247.706C251.367 127.43 254.312 131.183 254.233 135.748Z" fill="#3F3D56"/>
<path d="M145.318 60.7555C154.233 60.7555 161.46 51.7401 161.46 40.619C161.46 29.498 154.233 20.4826 145.318 20.4826C136.404 20.4826 129.177 29.498 129.177 40.619C129.177 51.7401 136.404 60.7555 145.318 60.7555Z" fill="#FFB6B6"/>
<path d="M118.321 93.3069L120.097 117.237L132.175 177.949L121.74 182.511L104.111 116.351L101.676 89.7617L118.321 93.3069Z" fill="#FFB6B6"/>
<path d="M113.516 135.748L112.73 181.501C112.654 185.93 109.754 189.471 106.203 189.471H38.7361C35.2689 189.471 32.4065 186.09 32.2172 181.771L30.2122 136.018C30.0078 131.353 32.9854 127.43 36.7311 127.43H106.989C110.649 127.43 113.595 131.183 113.516 135.748Z" fill="#3F3D56"/>
<path d="M134.098 189.78C141.138 189.78 146.846 186.631 146.846 182.746C146.846 178.861 141.138 175.712 134.098 175.712C127.058 175.712 121.35 178.861 121.35 182.746C121.35 186.631 127.058 189.78 134.098 189.78Z" fill="#FFB6B6"/>
<path d="M93.2765 96.9655L100.559 48.5487C100.559 48.5487 120.807 45.0034 121.518 53.4233C122.228 61.8432 121.01 102.992 121.01 102.992L93.2765 96.9655V96.9655Z" fill="#6C63FF"/>
<path d="M138.803 43.7852C138.803 43.7852 148.788 39.3395 153 36.9475C157.212 34.5556 165.58 51.2395 165.766 42.4281C165.952 33.6168 163.06 29.9217 163.06 29.9217C163.06 29.9217 162.338 10.6457 146.771 13.0557C146.771 13.0557 150.195 3.41165 138.955 1.92038C127.715 0.429113 110.229 34.2892 111.795 39.3494C113.361 44.4096 115.238 48.5931 110.795 54.0036C106.352 59.4141 98.0321 89.9495 104.362 98.1663C110.692 106.383 111.107 109.949 106.77 115.061C102.433 120.173 92.1818 131.288 103.266 133.217C114.35 135.147 102.252 133.706 110.516 124.638C118.779 115.571 130.837 115.941 126.335 101.393C121.833 86.845 129.655 65.9976 128.676 62.835C127.697 59.6724 130.869 39.5895 130.869 39.5895C130.869 39.5895 138.251 38.2366 138.803 43.7852Z" fill="#2F2E41"/>
<path d="M221.221 68.0984C230.925 68.0984 238.792 58.2845 238.792 46.1785C238.792 34.0724 230.925 24.2585 221.221 24.2585C211.516 24.2585 203.649 34.0724 203.649 46.1785C203.649 58.2845 211.516 68.0984 221.221 68.0984Z" fill="#A0616A"/>
<path d="M222.623 16.7086C222.114 17.0788 221.433 16.5186 221.27 15.8129C221.107 15.1072 221.297 14.3579 221.486 13.6621L222.434 10.1591C223.106 7.6747 223.82 5.10349 225.276 3.21255C227.474 0.358464 230.967 -0.367601 234.111 0.158407C238.149 0.833908 242.134 3.56163 244.011 8.07227C245.889 12.5829 245.089 18.8769 241.697 21.6911C246.532 28.6047 248.218 36.3097 247.951 45.4789C247.685 54.648 239.676 63.0866 234.452 69.5459C233.286 68.6638 232.225 64.5299 232.867 63.0281C233.508 61.5263 232.589 59.7864 233.383 58.4031C234.178 57.0198 234.842 59.2225 234.039 57.847C233.532 56.9791 235.511 54.9824 234.757 54.4629C231.113 51.9503 229.902 46.2845 227.613 41.9458C224.853 36.7125 220.128 33.1685 215.129 32.5805C212.375 32.2566 209.466 32.8432 207.208 34.8379C204.951 36.8325 203.489 40.3968 204.013 43.7854C202.657 42.0682 201.982 39.5516 202.237 37.1624C202.491 34.7731 203.67 32.5638 205.338 31.3479C204.323 27.1634 205.192 22.35 207.547 19.1118C209.901 15.8737 219.452 16.4252 222.889 17.2774L222.623 16.7086Z" fill="#2F2E41"/>
<path d="M223.157 32.7075C227.709 33.3206 230.996 38.2399 233.772 42.7829C235.371 45.4014 237.047 48.293 237.007 51.5849C236.966 54.9131 235.183 57.7678 234.33 60.9219C232.937 66.0774 234.295 72.2113 237.612 75.7438C234.334 76.5197 230.791 73.454 230.225 69.3526C229.566 64.5781 232.468 59.9699 232.124 55.1442C231.821 50.8927 229.136 47.6207 226.852 44.4418C224.569 41.263 222.425 37.0447 223.475 32.9826L223.157 32.7075Z" fill="#2F2E41"/>
<path d="M291.214 177.975C286.705 181.174 284.374 186.67 286.006 190.25C287.639 193.829 292.617 194.137 297.128 190.935C298.943 189.687 300.493 187.915 301.647 185.767L320.616 171.909L315.213 160.944L297.087 175.769C295.017 175.908 293.003 176.665 291.214 177.975Z" fill="#FFB6B6"/>
<path d="M355.438 76.3582C354.871 76.078 349.897 73.7283 345.357 76.8306C340.141 80.3942 339.335 88.5291 339.053 91.3824C338.4 97.9735 340.323 99.4508 340.729 106.123C341.488 118.607 343.491 104.366 340.293 110.064C339.186 112.036 327.88 142.602 321.644 148.589C309.517 160.233 301.817 168.434 301.817 168.434L310.608 180.347C310.608 180.347 324.5 175.729 336.779 165.784C349.374 155.581 355.671 150.48 360.543 140.501C360.963 139.642 371.002 118.374 365.61 94.8575C364.381 89.4934 362.127 79.6652 355.438 76.3582Z" fill="#6C63FF"/>
<path d="M400.834 135.748L400.048 181.501C399.972 185.93 397.072 189.471 393.521 189.471H326.054C322.587 189.471 319.724 186.09 319.535 181.771L317.53 136.018C317.326 131.353 320.303 127.43 324.049 127.43H394.307C397.967 127.43 400.912 131.183 400.834 135.748Z" fill="#3F3D56"/>
</svg>
