<svg width="431" height="236" viewBox="0 0 431 236" fill="none" xmlns="http://www.w3.org/2000/svg">
<g clip-path="url(#clip0_104_86)">
<path d="M431 222.771C431 222.988 430.791 223.163 430.532 223.163H0V222.378H430.532C430.791 222.378 431 222.554 431 222.771Z" fill="#E6E6E6"/>
<path d="M265.537 168.284C268.305 168.284 270.548 166.401 270.548 164.079C270.548 161.756 268.305 159.873 265.537 159.873C262.769 159.873 260.526 161.756 260.526 164.079C260.526 166.401 262.769 168.284 265.537 168.284Z" fill="#3F3D56"/>
<path d="M303.401 204.732C306.168 204.732 308.412 202.849 308.412 200.526C308.412 198.204 306.168 196.321 303.401 196.321C300.633 196.321 298.389 198.204 298.389 200.526C298.389 202.849 300.633 204.732 303.401 204.732Z" fill="#3F3D56"/>
<path d="M251.895 147.023L295.327 194.218C295.327 194.218 304.236 208.236 318.156 204.031C332.077 199.825 310.918 187.209 310.918 187.209L268.599 140.014C268.599 140.014 263.031 127.331 251.895 129.934C240.759 132.538 251.895 147.023 251.895 147.023Z" fill="#6C63FF"/>
<path d="M325.31 180.181L317.972 183.44L299.499 161.24L310.329 156.43L325.31 180.181Z" fill="#A0616A"/>
<path d="M300.083 191.21C300.058 191.634 300.595 192.73 300.832 193.105C301.56 194.259 303.265 194.7 304.64 194.089L327.364 183.994C328.302 183.577 328.66 182.601 328.163 181.814L327.662 181.02C327.662 181.02 327.281 178.134 323.112 176.221C323.112 176.221 321.688 179.802 315.115 178.104L312.632 176.741L307.009 186.447L302.255 189.232C301.215 189.841 300.145 190.146 300.083 191.209L300.083 191.21Z" fill="#2F2E41"/>
<path d="M289.117 140.463L281.779 143.722L263.306 121.522L274.136 116.711L289.117 140.463Z" fill="#A0616A"/>
<path d="M263.889 151.491C263.865 151.915 264.401 153.011 264.638 153.387C265.366 154.541 267.072 154.981 268.447 154.37L291.17 144.276C292.109 143.859 292.467 142.882 291.97 142.095L291.469 141.301C291.469 141.301 291.088 138.416 286.919 136.503C286.919 136.503 285.495 140.083 278.921 138.386L276.439 137.022L270.816 146.729L266.062 149.513C265.022 150.122 263.952 150.428 263.889 151.491L263.889 151.491Z" fill="#2F2E41"/>
<path d="M315.372 93.2862L288.088 130.201L316.486 163.845L305.349 168.518C305.349 168.518 269.156 136.276 268.043 132.07C266.929 127.865 279.179 98.4263 279.179 98.4263H255.922L278.065 121.79L267.486 127.397L229.622 96.5572C229.622 96.5572 225.168 90.3464 229.622 88.0781C234.077 85.8098 274.021 70.8569 274.021 70.8569L315.372 93.2862Z" fill="#2F2E41"/>
<path d="M252.73 158.939C255.498 158.939 257.742 157.056 257.742 154.733C257.742 152.411 255.498 150.528 252.73 150.528C249.962 150.528 247.719 152.411 247.719 154.733C247.719 157.056 249.962 158.939 252.73 158.939Z" fill="#3F3D56"/>
<path d="M290.315 199.358C293.083 199.358 295.327 197.475 295.327 195.153C295.327 192.83 293.083 190.947 290.315 190.947C287.548 190.947 285.304 192.83 285.304 195.153C285.304 197.475 287.548 199.358 290.315 199.358Z" fill="#3F3D56"/>
<path d="M248.832 37.9139L257.185 24.8301C257.185 24.8301 282.768 29.0356 290.857 37.9139C298.946 46.7921 313.423 70.156 313.423 70.156C313.423 70.156 324.56 88.8471 314.537 99.1272C304.514 109.407 291.707 88.8471 291.707 88.8471L273.332 71.5578L271.105 71.0906L248.832 37.9139Z" fill="#6C63FF"/>
<path d="M236.126 92.8597C236.838 91.4097 237.953 90.1239 239.379 89.1099L251.441 62.0208L260.773 65.0376L247.018 91.8546C247.127 93.4198 246.788 94.9842 246.03 96.4169C244.189 100.025 240.48 102.151 237.745 101.169C235.01 100.186 234.285 96.466 236.126 92.8597V92.8597V92.8597Z" fill="#A0616A"/>
<path d="M255.236 38.6148L277.23 44.4557L259.134 70.8569L245.213 69.9224L255.236 38.6148Z" fill="#6C63FF"/>
<path d="M203.844 60.3723C205.598 59.8305 207.481 59.6492 209.335 59.8435L241.259 48.9557L244.931 56.7625L212.099 66.4199C210.8 67.5469 209.198 68.3965 207.428 68.8976C203.018 70.2029 198.642 69.352 197.652 66.9975C196.663 64.6429 199.435 61.6766 203.844 60.3723V60.3723L203.844 60.3723Z" fill="#A0616A"/>
<path d="M256.628 32.7738L272.796 47.9877L238.717 59.6891L230.113 50.4581L256.628 32.7738Z" fill="#6C63FF"/>
<path d="M125.78 132.48C125.798 132.482 125.825 132.486 125.858 132.491C126.5 132.58 130.386 133.083 134.303 131.831C135.963 131.3 135.397 131.168 139.093 129.324C143.426 127.161 144.538 127.176 144.861 126.168C145.505 124.155 142.064 120.99 139.787 121.198C139.188 121.253 138.546 121.553 137.547 121.349C137.327 121.305 136.367 121.109 135.899 120.442C135.481 119.847 135.835 119.417 135.667 118.929C135.226 117.648 131.55 117.008 128.327 117.46C126.474 117.72 125.032 118.43 122.225 119.838C117.338 122.289 114.894 123.515 114.345 125.392C113.825 127.172 115.074 127.939 114.165 129.844C113.319 131.618 111.976 131.499 111.513 132.934C110.769 135.244 113.531 137.778 114.681 138.834C115.943 139.991 117.149 140.627 118.75 141.47C120.76 142.529 121.765 143.058 122.974 143.004C125.165 142.906 131.674 143.239 131.759 141.717C131.791 141.147 139.686 141.614 135.799 135.476C135.322 134.723 125.98 135.527 125.857 135.094" fill="#2F2E41"/>
<path d="M127.557 139.239C134.373 139.239 139.899 134.602 139.899 128.881C139.899 123.161 134.373 118.524 127.557 118.524C120.74 118.524 115.215 123.161 115.215 128.881C115.215 134.602 120.74 139.239 127.557 139.239Z" fill="#FFB6B6"/>
<path d="M84.2296 212.216C84.2296 212.216 66.9109 207.582 66.1579 209.899C65.4049 212.216 78.4567 216.008 88.7475 216.008C99.0384 216.008 163.795 215.586 163.795 215.586C163.795 215.586 181.867 210.742 176.596 209.899C171.325 209.057 84.2296 212.216 84.2296 212.216H84.2296Z" fill="#6C63FF"/>
<path d="M92.2615 222.748C94.8953 222.748 97.0304 220.956 97.0304 218.746C97.0304 216.536 94.8953 214.744 92.2615 214.744C89.6277 214.744 87.4926 216.536 87.4926 218.746C87.4926 220.956 89.6277 222.748 92.2615 222.748Z" fill="#3F3D56"/>
<path d="M154.257 222.748C156.891 222.748 159.026 220.956 159.026 218.746C159.026 216.536 156.891 214.744 154.257 214.744C151.624 214.744 149.488 216.536 149.488 218.746C149.488 220.956 151.624 222.748 154.257 222.748Z" fill="#3F3D56"/>
<path d="M134.68 141.865L120.207 140.715L115.102 144.392H115.102C110.455 145.839 107.336 149.523 107.237 153.682L106.443 187.256L143.59 189.152C143.59 189.152 139.574 181.358 142.335 179.884C145.096 178.41 146.784 158.189 144.469 154.924C142.153 151.659 140.829 147.868 140.829 147.868L134.68 141.865Z" fill="#E6E6E6"/>
<path d="M107.447 186.203L102.929 195.681C102.929 195.681 95.9009 208.951 102.678 212.743C109.455 216.534 148.61 213.585 148.61 213.585C148.61 213.585 152.375 210.847 154.132 205.16C155.889 199.473 144.845 190.416 144.845 190.416L143.59 189.152L107.447 186.203Z" fill="#2F2E41"/>
<path d="M156.038 210.853C156.777 214.126 159.389 216.459 161.871 216.064C164.353 215.669 165.766 212.695 165.026 209.421C164.751 208.11 164.107 206.873 163.146 205.813L159.805 191.978L152.102 193.432L156.214 206.917C155.781 208.198 155.721 209.548 156.038 210.853Z" fill="#FFB6B6"/>
<path d="M134.14 163.295C134.14 163.295 136.568 165.672 141.069 166.204C145.571 166.736 152.605 201.692 152.605 201.692L162.263 198.346C162.263 198.346 157.126 166.598 155.694 164.455C154.262 162.313 139.139 146.322 139.139 146.322L134.14 163.295H134.14Z" fill="#E6E6E6"/>
<path d="M95.5127 211.787C94.7735 215.061 92.1618 217.394 89.6797 216.998C87.1976 216.603 85.7854 213.63 86.5254 210.356C86.7996 209.044 87.444 207.807 88.4048 206.748L91.7457 192.913L99.4488 194.367L95.3374 207.851C95.7696 209.133 95.8297 210.483 95.5127 211.787Z" fill="#FFB6B6"/>
<path d="M117.411 164.229C117.411 164.229 114.983 166.607 110.482 167.138C105.98 167.67 98.946 202.626 98.946 202.626L89.2877 199.281C89.2877 199.281 94.4249 167.532 95.8569 165.39C97.289 163.247 112.412 147.257 112.412 147.257L117.411 164.229H117.411Z" fill="#E6E6E6"/>
<path d="M137.193 204.829L129.81 199.428L112.426 219.984L117.428 223.644L137.193 204.829Z" fill="#FFB6B6"/>
<path d="M149.363 210.636C149.363 210.636 162.666 192.101 163.168 184.097C163.67 176.093 155.387 175.039 152.375 176.724C149.363 178.41 116.866 209.405 116.866 209.405L127.025 215.13L149.006 200.44L149.363 210.636Z" fill="#2F2E41"/>
<path d="M111.882 205.881L118.998 200.234L137.357 220.184L132.535 224.011L111.882 205.881Z" fill="#FFB6B6"/>
<path d="M100.419 210.636C100.419 210.636 87.1161 192.101 86.6141 184.097C86.1121 176.093 94.395 175.039 97.4069 176.724C100.419 178.41 130.516 210.636 130.516 210.636L122.756 215.13L100.776 200.44L100.419 210.636Z" fill="#2F2E41"/>
<path d="M114.349 216.429C114.349 216.429 105.062 220.431 105.564 221.484C106.066 222.537 106.568 226.539 106.568 226.539C106.568 226.539 99.5404 230.541 105.815 233.28C112.09 236.018 116.859 235.807 117.612 234.122C118.365 232.437 118.616 227.592 118.616 227.592L121.879 220.642L114.349 216.429L114.349 216.429Z" fill="#2F2E41"/>
<path d="M135.182 217.061C135.182 217.061 144.469 221.063 143.967 222.116C143.465 223.169 142.963 227.171 142.963 227.171C142.963 227.171 149.99 231.173 143.716 233.911C137.441 236.65 132.672 236.439 131.919 234.754C131.166 233.069 130.915 228.224 130.915 228.224L127.652 221.273L135.182 217.061L135.182 217.061Z" fill="#2F2E41"/>
<path d="M123.582 129.552C123.6 129.554 123.627 129.558 123.66 129.563C124.302 129.652 128.188 130.155 132.105 128.903C133.765 128.372 133.199 128.24 136.895 126.396C141.228 124.233 142.34 124.248 142.663 123.24C143.307 121.227 139.866 118.062 137.589 118.27C136.99 118.325 136.347 118.625 135.349 118.422C135.129 118.377 134.169 118.181 133.701 117.514C133.283 116.919 133.637 116.489 133.469 116.001C133.028 114.72 129.352 114.081 126.129 114.532C124.276 114.792 122.834 115.502 120.027 116.91C115.14 119.361 112.696 120.587 112.147 122.464C111.627 124.244 112.876 125.011 111.967 126.916C111.121 128.69 109.778 128.572 109.315 130.007C108.571 132.316 111.333 134.85 112.483 135.906C113.745 137.063 114.951 137.699 116.552 138.542C118.562 139.601 119.567 140.13 120.776 140.076C122.966 139.979 125.145 138.312 125.23 136.791C125.262 136.221 124.979 136.05 124.277 134.09C123.985 133.273 123.782 132.599 123.659 132.167" fill="#2F2E41"/>
<path d="M249.946 11.3434C253.679 11.3434 256.705 8.80412 256.705 5.67172C256.705 2.53932 253.679 0 249.946 0C246.213 0 243.187 2.53932 243.187 5.67172C243.187 8.80412 246.213 11.3434 249.946 11.3434Z" fill="#2F2E41"/>
<path d="M239.565 31.0969C247.694 31.0969 254.283 25.5669 254.283 18.7452C254.283 11.9236 247.694 6.39359 239.565 6.39359C231.436 6.39359 224.846 11.9236 224.846 18.7452C224.846 25.5669 231.436 31.0969 239.565 31.0969Z" fill="#A0616A"/>
<path d="M250.121 29.7101C251.884 29.8423 254.763 26.057 254.635 22.391C254.552 20.0326 256.992 19.5689 257.173 16.5275C257.279 14.7553 254.035 14.2028 253.812 12.7813C253.408 10.2059 251.428 8.47284 251.181 8.26216C249.047 6.44355 247.541 7.03475 245.032 4.92703C243.521 3.65808 243.908 3.31043 242.891 2.74758C239.955 1.12316 234.678 2.88372 231.523 5.25526C230.431 6.07591 226.361 5.17898 224.583 7.49641C222.489 10.2268 222.975 15.795 223.873 16.5298C224.419 16.9763 225.665 15.8855 229.043 15.1855C232.17 14.5374 229.22 17.7425 232.835 17.2047C237.11 16.5686 237.947 15.4772 239.548 16.1318C241.241 16.8238 242.563 18.9666 242.179 20.651C241.989 21.4869 241.436 21.9529 241.748 22.378C242.316 23.154 242.969 22.3929 243.698 23.1717C244.546 24.0775 242.438 26.4013 242.835 26.6257C242.915 26.6709 243.157 26.665 245.432 24.8289C246.341 24.0958 246.607 23.6455 246.785 23.7147C247.073 23.8265 248.958 25.3008 248.238 26.465C247.118 28.2768 248.552 28.3333 248.238 29.5529C247.915 30.8113 249.001 29.626 250.121 29.7101Z" fill="#2F2E41"/>
</g>
<defs>
<clipPath id="clip0_104_86">
<rect width="431" height="236" fill="white"/>
</clipPath>
</defs>
</svg>
