<svg width="472" height="297" viewBox="0 0 472 297" fill="none" xmlns="http://www.w3.org/2000/svg">
<path d="M472 249.402C472 249.75 471.658 250.03 471.231 250.03H0.768719C0.34239 250.03 0 249.75 0 249.402C0 249.233 0.0775567 249.085 0.206721 248.975H58.1643C59.3981 248.975 60.6061 248.906 61.7947 248.774H471.231C471.658 248.774 472 249.054 472 249.402Z" fill="#3F3D56"/>
<path d="M95.9775 145.082H48.4178V240.842H95.9775V145.082Z" fill="#E6E6E6"/>
<path d="M73.5658 172.746C73.5658 182.442 63.9401 190.302 52.0663 190.302C40.1924 190.302 30.5667 182.442 30.5667 172.746C30.5667 163.05 40.1924 155.19 52.0663 155.19C63.9401 155.19 73.5658 163.05 73.5658 172.746Z" fill="#E6E6E6"/>
<path d="M32.1966 177.747C35.5069 177.747 38.1904 175.555 38.1904 172.852C38.1904 170.149 35.5069 167.958 32.1966 167.958C28.8863 167.958 26.2028 170.149 26.2028 172.852C26.2028 175.555 28.8863 177.747 32.1966 177.747Z" fill="#E6E6E6"/>
<path d="M111.353 172.64C111.353 178.281 105.753 182.854 98.8442 182.854C91.9357 182.854 86.3353 178.281 86.3353 172.64C86.3353 166.998 91.9357 162.425 98.8442 162.425C105.753 162.425 111.353 166.998 111.353 172.64Z" fill="#E6E6E6"/>
<path d="M111.353 177.534C114.663 177.534 117.347 175.343 117.347 172.64C117.347 169.936 114.663 167.745 111.353 167.745C108.043 167.745 105.359 169.936 105.359 172.64C105.359 175.343 108.043 177.534 111.353 177.534Z" fill="#E6E6E6"/>
<path d="M72.7841 115.396C76.0944 115.396 78.7779 113.205 78.7779 110.502C78.7779 107.799 76.0944 105.607 72.7841 105.607C69.4738 105.607 66.7903 107.799 66.7903 110.502C66.7903 113.205 69.4738 115.396 72.7841 115.396Z" fill="#E6E6E6"/>
<path d="M43.8574 137.74H102.753C105.776 137.74 108.226 139.741 108.226 142.209C108.226 144.677 105.776 146.678 102.753 146.678H43.8574C40.8349 146.678 38.3848 144.677 38.3848 142.209C38.3848 139.741 40.8349 137.74 43.8574 137.74Z" fill="#E6E6E6"/>
<path d="M73.3052 115.396H73.3052C85.8184 115.396 95.9774 123.692 95.9774 133.91V140.507H50.6329V133.91C50.6329 123.692 60.792 115.396 73.3052 115.396V115.396V115.396Z" fill="#E6E6E6"/>
<path d="M108.812 239.246H35.5833V248.822H108.812V239.246Z" fill="#E6E6E6"/>
<path d="M134.505 190.585C140.297 193.437 140.869 194.783 144.378 195.96C146.154 196.555 149.48 197.374 155.897 196.631C164.739 195.609 170.191 192.693 185.516 185.882C196.447 181.024 201.791 178.9 209.376 177.82C215.06 177.01 218.363 177.305 220.895 177.82C229.728 179.615 234.55 185.179 235.705 186.554C239.696 191.307 240.201 195.949 240.641 199.991C241.195 205.082 241.996 212.44 237.35 218.131C231.529 225.262 223.421 222.101 209.376 228.88C193.853 236.372 196.45 243.761 183.871 247.692C167.775 252.722 150.252 244.771 149.315 244.333C132.65 236.528 129.24 222.366 120.518 223.505C115.307 224.186 114.788 229.468 106.531 230.896C104.986 231.163 98.6281 232.262 94.1898 228.88C91.4627 226.802 91.5473 231.454 92.9556 228.544C94.7638 224.809 98.4118 217.517 100.772 213.428C102.033 211.243 100.612 210.569 101.595 204.694C102.075 201.824 102.317 200.376 103.24 198.647C105.527 194.364 109.967 192.152 113.113 190.585C116.941 188.678 120.703 186.804 125.455 187.226C128.174 187.467 130.284 188.506 134.505 190.585V190.585H134.505Z" fill="#3F3D56"/>
<path d="M234.882 206.709C236.341 207.686 236.689 209.664 237.35 213.428C237.962 216.909 237.59 219.045 237.35 222.833C236.99 228.521 237.558 227.991 237.35 235.599C237.179 241.858 237.094 244.988 236.527 247.692C235.508 252.555 234.965 250.686 229.945 263.144C228.927 265.672 228.116 267.817 225.832 268.519C222.97 269.398 219.672 267.434 219.249 267.175C218.556 266.751 216.112 265.255 215.958 263.144C215.764 260.465 219.478 259.786 222.541 255.754C224.453 253.236 224.912 250.716 225.832 245.676C226.706 240.883 227.143 238.487 225.832 236.27C223.439 232.227 217.964 230.973 217.604 230.896C214.328 230.189 213.269 231.19 209.376 230.896C205.735 230.62 199.737 229.221 198.68 226.865C195.785 220.405 227.91 202.045 234.882 206.709V206.709Z" fill="#3F3D56"/>
<path d="M221.718 197.303C223.177 198.28 223.525 200.259 224.186 204.022C224.798 207.503 224.426 209.639 224.186 213.428C223.826 219.115 224.393 218.585 224.186 226.193C224.015 232.452 223.93 235.582 223.363 238.286C222.344 243.149 221.801 241.28 216.781 253.738C215.763 256.266 214.951 258.412 212.667 259.113C209.806 259.992 206.508 258.028 206.085 257.77C205.392 257.345 202.947 255.849 202.794 253.738C202.6 251.059 206.314 250.38 209.376 246.348C211.288 243.831 211.748 241.311 212.667 236.27C213.542 231.477 213.979 229.081 212.667 226.865C210.274 222.821 204.8 221.568 204.44 221.49C201.164 220.783 200.105 221.784 196.212 221.49C192.571 221.215 186.573 219.815 185.516 217.459C182.62 210.999 214.746 192.639 221.718 197.303V197.303Z" fill="#3F3D56"/>
<path d="M197.035 230.224C197.961 231.377 199.024 234.352 201.149 240.302C202.096 242.955 208.233 260.411 210.199 265.832C210.764 267.39 211.497 269.335 213.49 271.207C215.168 272.782 216.064 272.732 216.781 273.894C218.647 276.917 215.005 281.181 214.313 281.956C213.507 282.858 209.764 287.046 204.44 286.659C203.884 286.619 200.285 286.357 199.503 284.643C198.304 282.016 205.354 279.551 205.262 275.238C205.209 272.69 202.709 271.635 199.503 268.519C192.625 261.834 195.559 258.362 190.453 253.067C182.816 245.147 168.621 245.002 166.593 245.004C161.337 245.011 154.023 245.019 149.315 249.035C142.751 254.634 145.463 264.429 142.733 279.269C142.733 279.269 142.29 281.675 141.087 285.315C139.102 291.323 137.519 292.875 136.973 293.377C136.232 294.06 134.064 296.005 130.391 296.737C129.885 296.838 127.545 297.275 124.632 296.737C122.699 296.379 120.936 296.053 119.695 294.721C118.505 293.443 118.054 291.517 118.873 290.018C119.863 288.204 121.904 288.499 124.632 286.659C126.557 285.36 127.561 283.554 129.568 279.94C130.457 278.341 131.788 275.916 132.859 272.55C134.099 268.655 134.251 265.645 134.505 259.785C134.719 254.848 134.615 250.744 134.505 246.348C134.376 241.23 134.201 239.559 134.505 236.27C134.824 232.82 135.135 229.461 136.151 227.536C141.615 217.182 184.974 215.203 197.035 230.224V230.224Z" fill="#3F3D56"/>
<path d="M231.591 184.538C235.108 182.95 235.61 179.234 236.527 172.445C237.196 167.5 237.594 164.555 235.705 161.024C233.155 156.257 228.368 154.033 227.477 153.633C226.504 153.197 220.112 150.429 213.49 152.29C212.566 152.549 210.119 154.034 205.263 156.992C199.467 160.523 198.617 161.196 197.858 162.367C195.826 165.5 196.042 169.734 197.858 170.429C199.237 170.958 201.62 169.475 202.794 168.414C204.198 167.145 203.987 166.376 205.263 165.055C206.274 164.007 207.225 163.642 210.199 162.367C217.567 159.211 217.94 158.792 219.249 159.008C222.514 159.547 224.07 162.787 224.186 163.039C225.182 165.199 224.499 167.163 223.363 170.429C222.762 172.158 222.079 173.491 220.895 175.804C218.75 179.993 218.186 180.307 218.427 181.179C219.218 184.04 226.946 186.636 231.591 184.538H231.591H231.591Z" fill="#3F3D56"/>
<path d="M147.258 196.296C148.618 196.479 149.278 202.83 147.258 208.389C145.876 212.19 143.089 216.038 142.592 216.717C142.2 217.252 141.823 217.739 140.676 219.138C135.064 225.981 132.229 229.398 130.803 229.216C128.901 228.973 134.106 225.301 134.505 221.789C135.247 215.261 138.837 214.454 145.201 204.993C148.645 199.874 146.196 196.152 147.258 196.296L147.258 196.296Z" fill="#6C63FF"/>
<path d="M118.461 194.28C117.773 191.421 121.684 187.451 125.866 186.89C131.964 186.071 137.258 192.686 139.03 196.967C141.468 202.856 138.73 207.917 137.385 210.404C135.697 213.524 134.435 213.729 134.094 213.764C131.604 214.018 128.654 210.295 127.512 207.045C126.507 204.186 127.641 203.794 126.689 201.67C124.729 197.297 119.195 197.331 118.461 194.28H118.461Z" fill="#2F2E41"/>
<path d="M146.046 208.612L309.308 121.608L306.901 121.161L143.639 208.166L146.046 208.612Z" fill="#6C63FF"/>
<path d="M330.497 48.8696L327.65 38.5079L340.462 33.7981L341.885 43.2178L330.497 48.8696Z" fill="#A0616A"/>
<path opacity="0.1" d="M330.497 48.8696L327.65 38.5079L335.195 35.349L332.851 47.5644L330.497 48.8696Z" fill="black"/>
<path d="M292.995 137.673C290.548 136.228 290.418 131.962 292.706 128.145C293.708 126.474 295.006 125.167 296.355 124.345L297.699 122.166L314.695 91.9222C314.695 91.9222 322.135 63.3981 325.164 59.9493C328.193 56.5005 332.572 57.3131 332.572 57.3131L336.456 60.7379L322.592 101.138L305.484 125.054L303.191 128.382C303.107 129.951 302.569 131.708 301.568 133.378C299.28 137.195 295.442 139.118 292.995 137.673L292.995 137.673Z" fill="#A0616A"/>
<path d="M329.797 45.9099C329.797 45.9099 335.203 45.7024 338.614 49.8707C342.024 54.0391 324.156 101.02 324.156 101.02L309.601 100.508L329.797 45.9099Z" fill="#6C63FF"/>
<path d="M331.209 40.1563C338.547 40.1563 344.495 34.2521 344.495 26.9688C344.495 19.6855 338.547 13.7812 331.209 13.7812C323.872 13.7812 317.923 19.6855 317.923 26.9688C317.923 34.2521 323.872 40.1563 331.209 40.1563Z" fill="#A0616A"/>
<path d="M300.13 218.424L291.115 240.56L285.896 235.38L283.998 225.489L291.589 216.069L300.13 218.424Z" fill="#A0616A"/>
<path d="M384.589 210.417L393.604 220.779L389.334 229.257L379.844 227.844L375.099 214.656L384.589 210.417Z" fill="#A0616A"/>
<path d="M324.566 86.7838L323.38 105.859L352.798 100.678L350.9 88.9033L324.566 86.7838Z" fill="#A0616A"/>
<path d="M323.143 106.094L352.798 96.4391C352.798 96.4391 363.711 118.104 351.849 131.763C339.987 145.421 300.605 223.134 300.605 223.134L288.743 217.482L305.824 168.029L324.803 122.343L323.143 106.094V106.094Z" fill="#2F2E41"/>
<path d="M351.849 123.756L363.237 173.21L386.961 211.359L374.624 218.424L341.41 173.21L330.497 138.357L351.849 123.756Z" fill="#2F2E41"/>
<path d="M279.727 223.605H271.51C271.51 223.605 261.921 219.837 259.674 223.605C257.426 227.373 269.701 238.059 269.701 238.059C269.701 238.059 286.845 247.625 289.217 247.154C291.589 246.683 292.538 241.031 292.538 241.031L295.385 234.438L291.115 235.851C291.115 235.851 285.421 232.554 286.845 226.902L279.727 223.605L279.727 223.605Z" fill="#2F2E41"/>
<path d="M391.706 222.192V217.482L397.222 222.192C397.222 222.192 406.415 225.489 399.298 232.554C392.18 239.618 383.165 247.154 383.165 247.154C383.165 247.154 368.931 250.922 367.982 246.683C367.033 242.444 367.982 240.729 367.982 240.729L373.201 238.206L377.946 225.96L385.538 226.902L391.706 222.192H391.706Z" fill="#2F2E41"/>
<path d="M335.242 29.5592L330.972 29.0882L323.143 21.317C323.143 21.317 316.026 25.0848 316.026 22.2589C316.026 9.07135 324.092 9.54233 330.735 8.60037C337.377 7.6584 336.666 7.42291 338.801 10.9553C339.777 12.5708 343.308 13.5457 343.308 13.5457C343.308 13.5457 349.951 4.59699 353.273 15.4297C356.594 26.2623 352.324 59.7022 355.645 62.5281C358.967 65.3541 342.007 68.1758 343.844 57.1097C345.681 46.0437 349.002 29.0882 347.104 25.3203C345.206 21.5525 344.732 22.4944 344.732 22.4944C347.084 21.5412 348.621 38.3316 339.753 39.1537L339.513 30.9722C339.513 30.9722 338.089 26.7333 335.242 29.5592L335.242 29.5592Z" fill="#2F2E41"/>
<path d="M329.311 45.8082L343.546 40.1564L362.525 96.6745L323.475 95.2626L319.959 78.3937C319.959 78.3937 316.526 69.6141 319.373 64.4333C322.22 59.2524 329.311 45.8082 329.311 45.8082L329.311 45.8082Z" fill="#6C63FF"/>
<path d="M366.352 140.483C363.515 140.725 360.905 137.334 360.522 132.909C360.354 130.972 360.641 129.158 361.255 127.71L361.067 125.162L357.113 90.7542C357.113 90.7542 349.753 62.6087 350.189 58.0538C350.624 53.4989 351.312 52.2897 351.312 52.2897L356.479 52.8244L368.942 93.6719L369.088 123.004L369.18 127.035C370.033 128.357 370.628 130.096 370.795 132.033C371.178 136.458 369.189 140.242 366.352 140.483H366.352Z" fill="#A0616A"/>
<path d="M342.359 44.6307C342.359 44.6307 346.63 41.3338 351.849 42.7468C357.069 44.1597 370.143 92.6712 370.143 92.6712L358.018 100.678L342.359 44.6307V44.6307V44.6307Z" fill="#6C63FF"/>
</svg>
