<svg width="184" height="175" viewBox="0 0 184 175" fill="none" xmlns="http://www.w3.org/2000/svg">
<path d="M93.6463 114.238C110.14 114.238 123.511 101.521 123.511 85.8336C123.511 70.1464 110.14 57.4294 93.6463 57.4294C77.1523 57.4294 63.7812 70.1464 63.7812 85.8336C63.7812 101.521 77.1523 114.238 93.6463 114.238Z" fill="#FFB6B6"/>
<path d="M76.5018 118.438L75.1525 105.467L102.096 100.675L118.006 137.517L90.3364 167.78L70.6221 130.938L76.5018 118.438Z" fill="#FFB6B6"/>
<path d="M74.7197 111.96L80.6102 113.225C80.6102 113.225 75.9797 99.2601 77.5514 97.9269C79.1231 96.5936 82.9745 98.6944 82.9745 98.6944L87.0219 103.01L91.9518 98.2363C91.9518 98.2363 97.304 91.9067 99.3996 90.129C101.495 88.3513 98.1292 81.7528 98.1292 81.7528C98.1292 81.7528 129.22 73.7794 117.651 59.4371C117.651 59.4371 110.868 48.1922 108.659 51.8553C106.45 55.5184 103.817 49.7007 103.817 49.7007L95.7739 51.1553C95.7739 51.1553 79.9007 42.2538 64.8352 61.2966C49.7697 80.3393 74.7197 111.96 74.7197 111.96H74.7197V111.96Z" fill="#2F2E41"/>
<path d="M149.815 155.576C133.493 168.161 113.302 175 92.0001 175C72.5486 175 54.0207 169.296 38.5225 158.724C38.5501 158.447 38.5778 158.174 38.602 157.901C39.0136 153.625 39.3802 149.467 39.6223 146.02C40.5596 132.635 73.3925 123.714 73.3925 123.714C73.3925 123.714 73.5413 123.855 73.8387 124.102C75.651 125.615 83.0076 131.102 95.9083 132.635C107.412 134.003 111.199 127.513 112.344 124.405C112.69 123.457 112.793 122.822 112.793 122.822L146.564 137.99C148.767 140.984 149.628 147.431 149.798 154.678C149.804 154.977 149.811 155.273 149.815 155.576Z" fill="#6C63FF"/>
<path d="M157.054 25.6283C139.677 9.10196 116.574 0 92 0C67.4263 0 44.3226 9.10196 26.9463 25.6283C9.57009 42.1546 0 64.1283 0 87.5C0 108.832 7.9722 129 22.5815 144.924C23.9753 146.447 25.4314 147.931 26.9463 149.372C27.3026 149.711 27.6623 150.049 28.0254 150.378C28.9938 151.27 29.9796 152.141 30.9826 152.987C31.5913 153.503 32.2069 154.01 32.8295 154.507C33.3172 154.898 33.8048 155.283 34.2994 155.661C34.3098 155.671 34.3167 155.678 34.3271 155.684C35.7002 156.737 37.0975 157.75 38.5224 158.724C54.0206 169.296 72.5486 175 92 175C113.302 175 133.493 168.161 149.815 155.576C151.146 154.549 152.45 153.484 153.73 152.382C154.861 151.408 155.968 150.405 157.054 149.372C157.396 149.046 157.738 148.717 158.074 148.385C159.008 147.47 159.914 146.539 160.799 145.595C175.8 129.569 184 109.135 184 87.5C184 64.1283 174.43 42.1546 157.054 25.6283ZM160.575 144.776C159.71 145.711 158.825 146.632 157.918 147.53C156.507 148.928 155.051 150.283 153.547 151.589C152.976 152.089 152.398 152.576 151.814 153.059C151.15 153.609 150.479 154.148 149.797 154.678C144.426 158.872 138.543 162.49 132.252 165.438C129.765 166.605 127.216 167.668 124.608 168.618C114.478 172.316 103.483 174.342 92 174.342C80.9185 174.342 70.2935 172.454 60.4606 169C56.4244 167.586 52.523 165.905 48.7773 163.98C48.2274 163.697 47.6809 163.411 47.1379 163.118C44.2811 161.579 41.5176 159.898 38.8648 158.082C38.7784 158.023 38.6884 157.961 38.602 157.901C36.7135 156.605 34.877 155.24 33.1027 153.806C32.4525 153.283 31.8092 152.753 31.1762 152.211C30.1456 151.339 29.1357 150.441 28.1499 149.52C26.2823 147.78 24.4976 145.967 22.7925 144.082C9.02362 128.872 0.691729 109.095 0.691729 87.5C0.691729 39.6151 41.6525 0.657895 92 0.657895C142.347 0.657895 183.308 39.6151 183.308 87.5C183.308 109.428 174.72 129.48 160.575 144.776Z" fill="#3F3D56"/>
</svg>
